# xmcd
#
# Track frame offsets: 
#        193
#        25651
#        44603
#        66343
#        83856
#        106330
#        129789
#        150007
#        168881
#        185705
#        204306
#        220955
#        247197
#        281386
#        299331
#        315458
#
# Disc length: 4561 seconds
#
# Revision: 0
# Processed by: cddbd v1.5.2PL0 Copyright (c) Steve Scherf et al.
# Submitted via: ExactAudioCopyFreeDBPlugin 1.0
#
DISCID=dc11cf10
DTITLE=Rebbie Jackson - Reaction
DYEAR=1986
DGENRE=Funk - Soul
TTITLE0=Reaction
TTITLE1=Ain't No Way To Love
TTITLE2=Ticket To Love
TTITLE3=You Don't Know What You're Missing
TTITLE4=You Send The Rain Away
TTITLE5=If You Don't Call (You Don't Care)
TTITLE6=Always Wanting Something
TTITLE7=Tonight I'm Yours
TTITLE8=Lessons (In The Fine Art Of Love)
TTITLE9=You Send The Rain Away (Single Version)
TTITLE10=Reaction (Single Version)
TTITLE11=Reaction (Extended Dance Mix)
TTITLE12=Reaction (Dub Mix)
TTITLE13=Reaction (Instrumental)
TTITLE14=Ticket To Love (7" Mix)
TTITLE15=Ticket To Love (12" Mix)
EXTD=
EXTT0=
EXTT1=
EXTT2=
EXTT3=
EXTT4=
EXTT5=
EXTT6=
EXTT7=
EXTT8=
EXTT9=
EXTT10=
EXTT11=
EXTT12=
EXTT13=
EXTT14=
EXTT15=
PLAYORDER=
